Patient4_TMGait_0pt2_03_left_12_EMG.mot
version=1
nRows=16
nColumns=33
inDegrees=no
endheader
time	1LAddLong	2LGlutMax	3LGlutMed	4LIliopsoas	5LSemiMemb	6LBicFemLong	7LRecFem	8LVastMed	9LVastLat	10LGasMed	11LTibAnt	12lTibPost	13LPeroneusLong	14LSol	15LExtDigLong	16LFlexDigLong	17RAddLong	18RGlutMax	19RGlutMed	20RIliopsoas	21RSemiMemb	22RBicFemLong	23RRecFem	24RVastMed	25RVastLat	26RGasMed	27RTibAnt	28RTibPost	29RPeroneusLong	30RSol	31RExtDigLong	32RFlexDigLong
26.835	0.002747	-0.005035	0.062103	-0.003204	-0.006409	0.016479	0.057526	0.013733	-0.022278	0.041962	-0.009918	-0.004425	0.010681	-0.07782	0.027313	-0.004425	0.040894	0.18921	-0.12634	-0.007324	0.002747	0.02655	0.51956	-0.074921	0.55298	-0.007324	-0.052338	-0.019226	0.49988	-0.061188	-0.002441	-0.014038
26.836	0.002899	-0.008698	0.042267	-0.017548	-0.009003	0.024109	0.009613	0.003815	-0.019379	-0.017853	0.10956	0.000153	-0.002136	-0.084381	-0.010529	0.002289	0.068207	0.15595	-0.19119	0.15289	-0.00885	-0.005188	0.5693	-0.21912	0.42694	-0.006409	0.000458	-0.020142	0.42313	-0.16022	-0.004272	-0.011444
26.837	0.008545	-0.006866	0.045776	-0.017242	-0.005188	0.026703	-0.080872	0.006409	-0.019836	-0.035095	0.025177	-0.004272	0.025635	-0.12878	-0.003357	-0.003204	0.071716	0.080414	0.56549	0.24414	-0.03418	-0.012512	-0.058899	0.037231	0.43213	0.014496	0.11673	-0.019379	-0.77286	-0.17792	-0.003052	-0.009766
26.838	0.006256	0.005035	0.048523	-0.026855	-0.005951	-0.002136	-0.15945	0.014038	-0.010071	-0.007935	0.001068	-0.005798	0.00824	-0.11734	0.074615	0.001221	0.06958	0.1535	0.78125	0.16632	-0.059204	0.044556	-0.52261	0.2449	0.38223	0.00885	0.053406	-0.018311	-1.5302	-0.16281	-0.006409	-0.014496
26.839	0.001068	0.003662	0.075226	-0.026398	-0.009155	-0.012665	-0.18173	0.001984	-0.015106	0.001678	0.061798	-0.009918	-0.027771	-0.090027	0.15289	0.012512	0.069885	0.112	0.7637	0.062408	-0.048828	0.020905	-0.18768	1.0184	-0.032806	0.005493	-0.024719	-0.020905	-0.17593	-0.21698	-0.004272	0.001526
26.84	-0.007477	-0.012817	0.072327	-0.028687	-0.002899	-0.02121	-0.13245	0.007324	-0.011139	-0.005341	0.036163	0.000458	0.006104	-0.041046	0.13962	-0.012817	0.067749	-0.054169	-0.0177	0.013123	-0.04837	-0.020905	0.49545	1.1586	-0.45166	0.003204	-0.047455	-0.019379	1.0506	-0.23468	-0.002594	0.000916
26.841	-0.007782	-0.001373	0.02655	-0.011139	-0.001678	-0.023499	-0.079193	0.013275	-0.014648	-0.012665	0.048218	-0.006866	0.018311	-0.012207	0.14435	-0.005035	0.061493	-0.12604	0.15686	-0.078125	-0.047302	-0.027618	0.73624	0.79636	-0.56061	-0.006256	0.017548	-0.017395	0.60318	0.015564	-0.003204	-0.009613
26.842	0.00473	0.016785	-0.047302	0.015717	-0.007629	-0.013885	-0.040436	0.005798	-0.013885	-0.018463	0.017853	-0.009003	0.024719	0.00473	0.11902	-0.021057	0.016479	-0.11704	-0.2449	-0.08255	-0.022888	-0.002289	0.2214	0.47165	-0.32761	-0.002289	-0.19058	-0.0177	-0.24506	0.20783	-0.002136	-0.006866
26.843	0.010376	0.000763	-0.072937	0.015869	-0.000305	-0.012207	-0.009308	0.006866	-0.010681	-0.026245	0.050507	0.003204	0.016479	-0.000153	0.09613	-0.000916	0.000305	-0.082855	-0.15945	-0.083923	-0.006256	0.034637	-0.50446	0.72586	-0.15747	-0.015106	-0.14877	-0.018158	0.82947	0.18692	-0.002441	0.000305
26.844	0.010376	0.000458	-0.050201	0.010376	-0.014648	-0.029755	0.010071	0.002899	-0.003357	-0.024872	0.044708	0.000458	0.038757	-0.004578	0.065918	0.011292	-0.028992	-0.13077	-0.38635	0.014954	0.001373	0.041962	-0.84335	0.85861	-0.36133	-0.021973	0.08255	-0.003357	-0.74661	0.11856	-0.000916	-0.007477
26.845	0.018463	-0.002747	-0.028534	-0.019836	-0.011597	-0.02655	0.021362	0.001373	-0.002441	-0.000305	-0.015717	-0.000458	-0.01297	0.012665	0.14862	-0.012665	0.008545	-0.10178	-0.45227	0.068512	-0.010834	-0.020142	-0.50491	0.20065	-0.2388	-0.010071	0.019989	-0.00946	-0.40985	0.098419	0.000763	-0.006714
26.846	0.002899	0.024414	-0.049133	-0.049896	-0.012512	-0.018158	-0.002899	-0.00412	-0.007324	0.004425	-0.068054	-0.007172	-0.007477	0.014343	0.036316	0.006256	0.080566	-0.033264	0.32059	-0.01236	0.023956	-0.069733	-0.052338	-0.88852	-0.23636	0.000305	-0.02243	-0.009155	-0.215	-0.015869	-0.000305	-0.002899
26.847	0.007782	0.036621	0.029907	-0.02533	-0.004578	-0.018921	-0.035706	0.007782	0.007629	-0.016174	-0.13214	-0.005341	0.020599	0.028992	-0.070496	-0.010529	0.087738	-0.014343	0.57342	-0.042572	0.044403	-0.076904	-0.11246	-0.97885	-0.23148	-0.001068	-0.084381	0.011749	0.92056	-0.054932	-0.001068	-0.009155
26.848	0.001984	0.042877	0.03891	0.004578	-0.000916	-0.029755	-0.056	0.010834	0.010071	0.00412	-0.10483	-0.006866	0.019379	0.017548	-0.049438	-0.001526	0.075989	0.034027	-0.046082	0.011597	-0.013428	-0.037079	-0.6929	-0.92071	-0.29053	-0.000305	-0.12192	0.040894	0.41122	0.022125	-0.003357	-0.008698
26.849	0.009003	0.011597	-0.073547	0.016937	0.003815	-0.036621	-0.081024	0.005188	0.015564	-0.011597	-0.00946	-0.000153	-0.002441	0.035858	0.059814	-0.000305	0.11063	0.13565	-0.17105	-0.025177	-0.086823	0.012665	-0.82275	-1.0727	0.12543	-0.016479	-0.037537	-0.20065	-0.1506	0.19394	0.000153	-0.011139
26.85	0.002289	0.010681	-0.11154	-0.029907	-0.003815	-0.041962	-0.092468	0.002899	0.016785	-0.015259	0.098419	0.000916	-0.012512	0.055084	0.11093	0.004578	0.075989	0.1326	0.14099	-0.052338	-0.053558	-0.065002	-0.4747	-1.6585	0.33356	-0.008087	0.027313	-0.002899	-0.090179	0.26077	-0.002747	-0.011292
